# xmcd
#
# Track frame offsets: 
#        150
#        9114
#        26669
#        49876
#        71437
#        87388
#        107767
#        128079
#        146062
#        160550
#        181548
#        199539
#        215767
#
# Disc length: 3032 seconds
#
# Revision: 0
# Processed by: cddbd v1.5.2PL0 Copyright (c) Steve Scherf et al.
# Submitted via: ExactAudioCopy v1.0b3
#
DISCID=a70bd60d
DTITLE=Netzwerk - The Pros And Cons Of Virtual Suicide
DYEAR=1900
DGENRE=
TTITLE0=Prelude
TTITLE1=Generator 7-8
TTITLE2=Transmission
TTITLE3=The Inner Light (That Shines)
TTITLE4=Vierteltakt
TTITLE5=Eagle Has Landed
TTITLE6=Traumtank
TTITLE7=Virtual Suicide
TTITLE8=Klangwelt
TTITLE9=Advantages Of A Simple Mind
TTITLE10=Der Wahnsinn
TTITLE11=Robotronic
TTITLE12=Carnima Murana
EXTD=
EXTT0=
EXTT1=
EXTT2=
EXTT3=
EXTT4=
EXTT5=
EXTT6=
EXTT7=
EXTT8=
EXTT9=
EXTT10=
EXTT11=
EXTT12=
PLAYORDER=
